<?xml version="1.0" standalone="no"?><!DOCTYPE svg PUBLIC "-//W3C//DTD SVG 1.1//EN" "http://www.w3.org/Graphics/SVG/1.1/DTD/svg11.dtd"><svg t="1543633843416" class="icon" style="" viewBox="0 0 1024 1024" version="1.1" xmlns="http://www.w3.org/2000/svg" p-id="9439" xmlns:xlink="http://www.w3.org/1999/xlink" width="200" height="200"><defs><style type="text/css"></style></defs><path d="M842.740622 293.9904C830.884978 280.689778 813.863822 273.066667 796.046222 273.066667L307.894044 273.066667c-13.1072 0-25.747911 4.096-36.226844 11.559822-1.809067-11.9808-3.572622-23.438222-4.903822-31.4368C252.996267 170.666667 176.287289 170.666667 130.4576 170.666667c-9.432178 0-17.066667 7.645867-17.066667 17.066667s7.634489 17.066667 17.066667 17.066667c54.818133 0 94.276267 3.879822 102.638933 54.010311 3.913956 23.472356 11.9808 79.598933 12.811378 85.390222 0.011378 0.1024 0.022756 0.2048 0.034133 0.284444 0.011378 0.068267 0.011378 0.136533 0.022756 0.193422l43.861333 284.251022c2.946844 20.639289 16.099556 37.649067 33.757867 46.6944-6.974578 10.092089-11.093333 22.311822-11.093333 35.487289 0 24.587378 14.210844 45.943467 35.145956 56.126578-0.773689 3.925333-1.206044 7.9872-1.206044 12.140089 0 34.497422 28.068978 62.577778 62.577778 62.577778 28.580978 0 52.701867-19.285333 60.154311-45.511111l198.280533 0c7.452444 26.225778 31.573333 45.511111 60.154311 45.511111 34.5088 0 62.577778-28.080356 62.577778-62.577778s-28.068978-62.577778-62.577778-62.577778c-28.580978 0-52.701867 19.285333-60.154311 45.511111L469.162667 762.311111c-7.452444-26.225778-31.573333-45.511111-60.154311-45.511111-18.090667 0-34.360889 7.759644-45.795556 20.081778-9.841778-4.471467-16.5888-14.336-16.5888-25.770667 0-15.689956 12.765867-28.444444 28.444444-28.444444l385.865956 0c31.835022 0 58.561422-23.847822 62.1568-55.318756l35.1232-284.592356C860.251022 325.051733 854.607644 307.279644 842.740622 293.9904zM727.597511 750.933333c15.678578 0 28.444444 12.754489 28.444444 28.444444s-12.765867 28.444444-28.444444 28.444444-28.444444-12.754489-28.444444-28.444444S711.907556 750.933333 727.597511 750.933333zM409.019733 750.933333c15.678578 0 28.444444 12.754489 28.444444 28.444444s-12.765867 28.444444-28.444444 28.444444-28.444444-12.754489-28.444444-28.444444S393.329778 750.933333 409.019733 750.933333z" p-id="9440" fill="#ff8198"></path></svg>