<?xml version="1.0" standalone="no"?><!DOCTYPE svg PUBLIC "-//W3C//DTD SVG 1.1//EN" "http://www.w3.org/Graphics/SVG/1.1/DTD/svg11.dtd"><svg t="1543633667311" class="icon" style="" viewBox="0 0 1024 1024" version="1.1" xmlns="http://www.w3.org/2000/svg" p-id="6933" xmlns:xlink="http://www.w3.org/1999/xlink" width="200" height="200"><defs><style type="text/css"></style></defs><path d="M841.5 190.8H181.1c-64.9 0-117.7 51.9-117.7 115.6v409.7c0 63.7 52.8 115.6 117.7 115.6h660.4c64.9 0 117.7-51.9 117.7-115.6V306.4c0-63.7-52.8-115.6-117.7-115.6zM620 495.5l284.1-227.6c7.1 11.2 11.3 24.4 11.3 38.5v409.7c0 13-3.5 25.2-9.6 35.8L620 495.5z m221.5-261.7c10.2 0 20 2.1 28.8 5.8L511.7 526.8 152.8 239.4c8.7-3.6 18.3-5.6 28.3-5.6h660.4zM117.1 752.3c-6.3-10.7-9.9-23-9.9-36.2V306.4c0-14.3 4.2-27.6 11.5-38.9l284.6 228-286.2 256.8z m64 36.4c-11.4 0-22.2-2.6-31.9-7.1L437.6 523l54.4 43.6 1.1 1.1 1.2 1.2c4.7 4.5 10.9 6.8 17.1 6.8 5.4 0 10.9-1.8 15.4-5.4l59-47.2 288.1 258.4c-9.8 4.7-20.7 7.3-32.3 7.3H181.1z" p-id="6934" fill="#ff8198"></path></svg>