<?xml version="1.0" standalone="no"?><!DOCTYPE svg PUBLIC "-//W3C//DTD SVG 1.1//EN" "http://www.w3.org/Graphics/SVG/1.1/DTD/svg11.dtd"><svg t="1543629680273" class="icon" style="" viewBox="0 0 1024 1024" version="1.1" xmlns="http://www.w3.org/2000/svg" p-id="5299" xmlns:xlink="http://www.w3.org/1999/xlink" width="200" height="200"><defs><style type="text/css"></style></defs><path d="M511.948835 898.963239c11.256368 0 20.363793-9.107425 20.363793-20.363793s-9.107425-20.363793-20.363793-20.363793c-11.256368 0-20.363793 9.107425-20.363793 20.363793C491.585041 889.855814 500.692467 898.963239 511.948835 898.963239M532.312628 125.036761l-40.727587 0c-11.256368 0-20.363793 9.107425-20.363793 20.363793s9.107425 20.363793 20.363793 20.363793l40.727587 0c11.256368 0 20.363793-9.107425 20.363793-20.363793S543.568996 125.036761 532.312628 125.036761M674.859181 63.945381l-325.820694 0c-45.025473 0-81.455173 36.429701-81.455173 81.455173l0 733.198891c0 45.025473 36.429701 81.455173 81.455173 81.455173l325.923024 0c45.025473 0 81.455173-36.429701 81.455173-81.455173l0-733.198891C756.416685 100.375082 719.884654 63.945381 674.859181 63.945381M715.586768 878.599446c0 22.512736-18.21485 40.727587-40.727587 40.727587l-325.820694 0c-22.512736 0-40.727587-18.21485-40.727587-40.727587l0-40.727587 407.378198 0 0 40.727587L715.586768 878.599446zM715.586768 797.144272l-407.275867 0 0-570.288544 407.378198 0 0 570.288544L715.586768 797.144272zM715.586768 186.128141l-407.275867 0 0-40.727587c0-22.512736 18.21485-40.727587 40.727587-40.727587l325.923024 0c22.512736 0 40.727587 18.21485 40.727587 40.727587l0 40.727587L715.586768 186.128141z" p-id="5300" fill="#ffffff"></path></svg>