<?xml version="1.0" standalone="no"?><!DOCTYPE svg PUBLIC "-//W3C//DTD SVG 1.1//EN" "http://www.w3.org/Graphics/SVG/1.1/DTD/svg11.dtd"><svg t="1543633728114" class="icon" style="" viewBox="0 0 1024 1024" version="1.1" xmlns="http://www.w3.org/2000/svg" p-id="7768" xmlns:xlink="http://www.w3.org/1999/xlink" width="200" height="200"><defs><style type="text/css"></style></defs><path d="M431.569901 389.052463c104.681923 0 213.559308-23.023883 278.947137-66.922754l0 79.918457 60.578395 0L771.095433 227.066653c0-105.193565-174.879185-161.98581-339.423204-161.98581S92.146697 121.873089 92.146697 227.066653l0 477.566503c0 105.193565 174.879185 161.98581 339.423204 161.98581L431.569901 806.1429c-172.832617 0-278.947137-59.145798-278.947137-101.509743L152.622764 561.066453c65.387829 43.796542 174.162886 66.922754 278.947137 66.922754l0-60.578395c-172.832617 0-278.947137-59.145798-278.947137-101.509743L152.622764 322.232038C218.010593 366.02858 326.887978 389.052463 431.569901 389.052463zM431.569901 125.55691c172.832617 0 278.947137 59.145798 278.947137 101.509743s-106.11452 101.509743-278.947137 101.509743-278.947137-59.145798-278.947137-101.509743S258.839612 125.55691 431.569901 125.55691zM702.944739 422.206855c-150.320376 0-228.908564 57.815529-228.908564 114.91476L474.036175 844.004397c0 57.099231 78.690517 114.91476 228.908564 114.91476 149.194764 0 227.680624-56.996902 228.908564-113.686819l0.102328 0L931.955631 537.121615C931.853303 480.022384 853.265114 422.206855 702.944739 422.206855zM702.944739 482.682922c111.12861 0 168.432497 38.168482 168.432497 54.438693 0 16.270211-57.303887 54.438693-168.432497 54.438693S534.512241 553.391826 534.512241 537.121615C534.512241 520.851404 591.816129 482.682922 702.944739 482.682922zM702.944739 898.44309c-111.12861 0-168.432497-38.168482-168.432497-54.438693l0-73.267113c38.373139 20.874988 94.756071 34.791646 168.432497 34.791646s129.95703-13.916658 168.432497-34.791646L871.377236 844.004397C871.377236 860.274608 814.073349 898.44309 702.944739 898.44309zM702.944739 744.950535c-111.12861 0-168.432497-38.168482-168.432497-54.438693l0-73.267113c38.373139 20.874988 94.756071 34.791646 168.432497 34.791646s129.95703-13.916658 168.432497-34.791646l0 73.267113C871.377236 706.782053 814.073349 744.950535 702.944739 744.950535z" p-id="7769" fill="#ff8198"></path></svg>