<?xml version="1.0" standalone="no"?><!DOCTYPE svg PUBLIC "-//W3C//DTD SVG 1.1//EN" "http://www.w3.org/Graphics/SVG/1.1/DTD/svg11.dtd"><svg t="1543633885897" class="icon" style="" viewBox="0 0 1024 1024" version="1.1" xmlns="http://www.w3.org/2000/svg" p-id="10435" xmlns:xlink="http://www.w3.org/1999/xlink" width="200" height="200"><defs><style type="text/css"></style></defs><path d="M950.58509 886.047344l-70.716457-561.527921c-3.97349-31.645681-30.898669-55.359731-62.784826-55.359732H707.997538v-64.714778c0-108.886725-87.935596-197.471096-195.991398-197.471095-108.097758 0-196.019027 88.584371-196.019027 197.471095v64.714778H206.888564c-31.885134 0-58.798033 23.71405-62.799153 55.359732l-70.674501 561.527921a61.59063 61.59063 0 0 0-0.493233 7.904001v59.798825c0 34.942767 28.306639 63.278059 63.279082 63.278059h751.600528c34.941744 0 63.278059-28.334269 63.278059-63.278059v-59.798825a61.753336 61.753336 0 0 0-0.494256-7.904001z m-571.305592-681.602431c0-74.00024 59.529696-134.193037 132.726642-134.193036 73.169317 0 132.713339 60.191774 132.713339 134.193036v64.714778H379.279498v-64.714778z m-243.079762 749.304234v-42.946029h540.138818c11.652364 0 21.106671-9.441004 21.106671-21.093369 0-11.652364-9.454307-21.079042-21.106671-21.079042H139.383235l67.505329-536.207283h109.098549v44.552616c-43.425958 13.498405-75.04401 54.063205-75.04401 101.884255 0 58.838966 47.849702 106.688668 106.689691 106.688668 12.624503 0 25.009554-2.183731 36.775504-6.522541 10.934005-4.002143 16.541712-16.119087 12.526266-27.053092-4.016469-10.948331-16.134437-16.542735-27.067418-12.540592-7.100708 2.606356-14.568781 3.930511-22.234352 3.930511-35.577215 0-64.503977-28.940065-64.503978-64.502954 0-24.051741 13.273278-45.046872 32.858297-56.134373v56.134373c0 17.485198 14.174809 31.645681 31.645681 31.645681s31.646704-14.15946 31.646704-31.645681v-56.134373c19.585018 11.088524 32.857273 32.082632 32.857273 56.134373 0 11.666691 9.439981 21.106671 21.092345 21.106671 11.652364 0 21.092345-9.439981 21.092345-21.106671 0-47.822073-31.617028-88.386873-75.042986-101.884255v-44.552616h265.441004v44.552616c-43.438238 13.511708-75.057313 54.063205-75.057313 101.884255 0 58.838966 47.864028 106.688668 106.675364 106.688668 12.63883 0 25.022856-2.183731 36.803134-6.508215 10.934005-4.016469 16.556038-16.133413 12.554919-27.066395-4.029772-10.948331-16.162066-16.542735-27.081744-12.540592-7.115034 2.606356-14.597434 3.930511-22.276309 3.930511-35.548563 0-64.489651-28.940065-64.489651-64.502954 0-24.051741 13.273278-45.046872 32.8716-56.134372v56.134372c0 17.485198 14.146157 31.645681 31.618051 31.645681 17.470872 0 31.658984-14.15946 31.658984-31.645681V422.726946c19.585018 11.075221 32.858296 32.082632 32.858297 56.134372 0 11.666691 9.439981 21.106671 21.091322 21.106672 11.653388 0 21.107695-9.439981 21.107694-21.106672 0-47.822073-31.632378-88.386873-75.058336-101.884254v-44.552617h109.085246l67.533981 536.207283h-96.108726c-11.652364 0-21.091322 9.426678-21.091322 21.079043 0 11.653388 9.439981 21.093369 21.091322 21.093368h99.292225v42.946029H136.199736z" p-id="10436" fill="#ff8198"></path></svg>