<?xml version="1.0" standalone="no"?><!DOCTYPE svg PUBLIC "-//W3C//DTD SVG 1.1//EN" "http://www.w3.org/Graphics/SVG/1.1/DTD/svg11.dtd"><svg t="1543633785338" class="icon" style="" viewBox="0 0 1024 1024" version="1.1" xmlns="http://www.w3.org/2000/svg" p-id="8624" xmlns:xlink="http://www.w3.org/1999/xlink" width="200" height="200"><defs><style type="text/css"></style></defs><path d="M63.904067 343.107025l2.865194-8.083941c7.367643-22.0006 26.605376-36.735885 50.038573-38.373139 21.386629-1.534926 42.773259 10.949136 52.801439 30.596183 10.232837 20.056361 7.367643 43.694214-7.469971 61.294694-1.739582 1.944239-3.479165 3.888478-5.423404 6.139702 41.44299 25.377436 82.681323 50.447886 123.715 75.722994 15.553912 9.618867 31.210153 19.237734 46.764065 28.549615 8.902568 5.218747 15.758569 3.683821 20.568002-5.01409 47.173379-85.955831 94.346757-172.01399 141.929449-258.890776-20.568002-10.437494-33.870691-26.400719-35.098631-50.038573-0.818627-16.577196 5.01409-30.800839 16.781853-42.363945 23.330868-22.716898 61.601679-20.568002 82.067353 4.604777 23.535525 28.8566 15.04227 62.624963-22.307585 88.002398 12.177076 22.307585 24.45648 44.717498 36.838213 67.025082 34.280004 62.420306 68.355351 124.635955 102.635355 187.056261 7.879285 14.4283 12.893375 15.758569 27.01469 7.367643 53.006096-32.335765 105.909863-64.876187 158.915959-97.31428 2.455881-1.534926 4.809433-3.069851 7.674628-4.809433-10.949136-10.949136-17.907465-23.330868-18.726092-38.577796-1.534926-28.549615 18.112122-53.517738 45.638453-58.224843 28.651944-5.01409 55.25732 11.358449 63.750575 39.089437 0.61397 2.148896 1.534926 4.40012 2.353553 6.549016l0 19.237734c-9.004897 28.8566-27.526332 45.638453-59.350455 45.84311-1.125612 3.274508-2.353553 6.549016-3.274508 9.823524-31.005496 106.319177-62.010992 212.84301-93.016488 319.162186-3.990806 13.916658-8.902568 17.498151-22.921555 17.498151L243.183372 754.978715c-15.04227 0-19.647047-3.479165-23.740182-17.498151-25.275107-86.262816-50.24323-172.832617-75.518337-259.095433-6.753672-23.330868-13.712002-46.661737-20.568002-70.094934-23.740182 0-41.647647-9.41421-52.801439-29.879884-2.660538-5.01409-4.40012-10.64215-6.549016-15.963226C63.904067 355.795743 63.904067 349.451384 63.904067 343.107025L63.904067 343.107025 63.904067 343.107025zM63.904067 343.107025" p-id="8625" fill="#ff8198"></path><path d="M510.362746 810.645348l250.192865 0c22.307585 0 40.112721 15.758569 42.568602 36.940542 2.455881 21.386629-11.563106 40.82902-33.154392 45.638453-3.069851 0.818627-6.344359 0.920955-9.41421 0.920955L259.965224 894.145298c-19.033077 0-35.098631-11.358449-40.624363-28.549615-5.730389-17.191166-0.409313-36.633557 14.837614-46.45708 7.879285-5.01409 18.316778-8.493255 27.526332-8.493255C344.693115 810.236035 427.579095 810.645348 510.362746 810.645348L510.362746 810.645348 510.362746 810.645348 510.362746 810.645348zM510.362746 810.645348" p-id="8626" fill="#ff8198"></path></svg>